<svg xmlns="http://www.w3.org/2000/svg" xmlns:xlink="http://www.w3.org/1999/xlink" width="1024" zoomAndPan="magnify" viewBox="0 0 768 767.999994" height="1024" preserveAspectRatio="xMidYMid meet" version="1.0"><defs><clipPath id="5f067e5f8a"><path d="M 99.046875 98.355469 L 668.953125 98.355469 L 668.953125 670 L 99.046875 670 Z M 99.046875 98.355469 " clip-rule="nonzero"/></clipPath><clipPath id="2d990993cb"><path d="M 384 98.355469 C 226.625 98.355469 99.046875 226.242188 99.046875 384 C 99.046875 541.757812 226.625 669.644531 384 669.644531 C 541.375 669.644531 668.953125 541.757812 668.953125 384 C 668.953125 226.242188 541.375 98.355469 384 98.355469 Z M 384 98.355469 " clip-rule="nonzero"/></clipPath><clipPath id="22748948b8"><path d="M 172 336 L 223 336 L 223 387 L 172 387 Z M 172 336 " clip-rule="nonzero"/></clipPath><clipPath id="88dcfa86ac"><path d="M 169.214844 340.316406 L 219.0625 333.277344 L 226.097656 383.121094 L 176.253906 390.160156 Z M 169.214844 340.316406 " clip-rule="nonzero"/></clipPath><clipPath id="044f75ee4e"><path d="M 194.140625 336.796875 C 180.375 338.738281 170.792969 351.472656 172.734375 365.238281 C 174.679688 379 187.414062 388.585938 201.175781 386.640625 C 214.941406 384.699219 224.523438 371.964844 222.582031 358.199219 C 220.636719 344.4375 207.902344 334.851562 194.140625 336.796875 Z M 194.140625 336.796875 " clip-rule="nonzero"/></clipPath><clipPath id="30cee1704d"><path d="M 160 403 L 211 403 L 211 454 L 160 454 Z M 160 403 " clip-rule="nonzero"/></clipPath><clipPath id="ad20314c8e"><path d="M 157.105469 406.9375 L 206.949219 399.902344 L 213.988281 449.746094 L 164.140625 456.785156 Z M 157.105469 406.9375 " clip-rule="nonzero"/></clipPath><clipPath id="6f318d8b07"><path d="M 182.027344 403.421875 C 168.261719 405.363281 158.679688 418.097656 160.625 431.863281 C 162.566406 445.625 175.300781 455.207031 189.066406 453.265625 C 202.828125 451.320312 212.410156 438.589844 210.46875 424.824219 C 208.523438 411.058594 195.792969 401.476562 182.027344 403.421875 Z M 182.027344 403.421875 " clip-rule="nonzero"/></clipPath><clipPath id="89ed9bdd26"><path d="M 229 401 L 280 401 L 280 452 L 229 452 Z M 229 401 " clip-rule="nonzero"/></clipPath><clipPath id="223eeff736"><path d="M 226.097656 404.800781 L 275.945312 397.765625 L 282.980469 447.609375 L 233.136719 454.648438 Z M 226.097656 404.800781 " clip-rule="nonzero"/></clipPath><clipPath id="dee320564d"><path d="M 251.023438 401.28125 C 237.257812 403.226562 227.675781 415.960938 229.617188 429.722656 C 231.5625 443.488281 244.292969 453.070312 258.058594 451.128906 C 271.824219 449.183594 281.40625 436.449219 279.464844 422.6875 C 277.519531 408.921875 264.785156 399.339844 251.023438 401.28125 Z M 251.023438 401.28125 " clip-rule="nonzero"/></clipPath><clipPath id="6f2d2d4401"><path d="M 301 408 L 353 408 L 353 459 L 301 459 Z M 301 408 " clip-rule="nonzero"/></clipPath><clipPath id="1ddd332d34"><path d="M 298.429688 412.40625 L 348.273438 405.367188 L 355.3125 455.210938 L 305.464844 462.25 Z M 298.429688 412.40625 " clip-rule="nonzero"/></clipPath><clipPath id="dea54a4d5b"><path d="M 323.351562 408.886719 C 309.585938 410.828125 300.003906 423.5625 301.949219 437.328125 C 303.890625 451.09375 316.625 460.675781 330.386719 458.730469 C 344.152344 456.789062 353.734375 444.054688 351.792969 430.289062 C 349.847656 416.527344 337.117188 406.941406 323.351562 408.886719 Z M 323.351562 408.886719 " clip-rule="nonzero"/></clipPath><clipPath id="ff9408bb59"><path d="M 188 468 L 240 468 L 240 520 L 188 520 Z M 188 468 " clip-rule="nonzero"/></clipPath><clipPath id="a116358b47"><path d="M 185.546875 472.707031 L 235.390625 465.667969 L 242.429688 515.511719 L 192.582031 522.550781 Z M 185.546875 472.707031 " clip-rule="nonzero"/></clipPath><clipPath id="ec0aac9b6a"><path d="M 210.46875 469.1875 C 196.703125 471.128906 187.121094 483.863281 189.066406 497.628906 C 191.007812 511.394531 203.742188 520.976562 217.503906 519.03125 C 231.269531 517.089844 240.851562 504.355469 238.910156 490.589844 C 236.964844 476.828125 224.234375 467.242188 210.46875 469.1875 Z M 210.46875 469.1875 " clip-rule="nonzero"/></clipPath><clipPath id="a6d9ea18a0"><path d="M 266 465 L 317 465 L 317 516 L 266 516 Z M 266 465 " clip-rule="nonzero"/></clipPath><clipPath id="5435a1ee51"><path d="M 262.914062 469.289062 L 312.761719 462.25 L 319.796875 512.09375 L 269.953125 519.132812 Z M 262.914062 469.289062 " clip-rule="nonzero"/></clipPath><clipPath id="249a05c969"><path d="M 287.835938 465.769531 C 274.074219 467.710938 264.488281 480.445312 266.433594 494.210938 C 268.375 507.976562 281.109375 517.558594 294.875 515.613281 C 308.640625 513.671875 318.222656 500.9375 316.277344 487.171875 C 314.335938 473.410156 301.601562 463.824219 287.835938 465.769531 Z M 287.835938 465.769531 " clip-rule="nonzero"/></clipPath><clipPath id="6e2839b7e0"><path d="M 335 468 L 386 468 L 386 520 L 335 520 Z M 335 468 " clip-rule="nonzero"/></clipPath><clipPath id="18bccd8dfc"><path d="M 332.363281 472.707031 L 382.207031 465.667969 L 389.246094 515.511719 L 339.398438 522.550781 Z M 332.363281 472.707031 " clip-rule="nonzero"/></clipPath><clipPath id="60df1cac4f"><path d="M 357.285156 469.1875 C 343.519531 471.128906 333.9375 483.863281 335.878906 497.628906 C 337.824219 511.394531 350.558594 520.976562 364.320312 519.03125 C 378.085938 517.089844 387.667969 504.355469 385.726562 490.589844 C 383.78125 476.828125 371.046875 467.242188 357.285156 469.1875 Z M 357.285156 469.1875 " clip-rule="nonzero"/></clipPath><clipPath id="3966b4ccd1"><path d="M 239 525 L 290 525 L 290 577 L 239 577 Z M 239 525 " clip-rule="nonzero"/></clipPath><clipPath id="4d3da44177"><path d="M 235.972656 529.550781 L 285.820312 522.511719 L 292.855469 572.359375 L 243.011719 579.394531 Z M 235.972656 529.550781 " clip-rule="nonzero"/></clipPath><clipPath id="a563f71416"><path d="M 260.894531 526.03125 C 247.132812 527.972656 237.546875 540.707031 239.492188 554.472656 C 241.433594 568.238281 254.167969 577.820312 267.933594 575.875 C 281.699219 573.933594 291.28125 561.199219 289.335938 547.433594 C 287.394531 533.671875 274.660156 524.085938 260.894531 526.03125 Z M 260.894531 526.03125 " clip-rule="nonzero"/></clipPath><clipPath id="1b607c9dcb"><path d="M 301 529 L 353 529 L 353 580 L 301 580 Z M 301 529 " clip-rule="nonzero"/></clipPath><clipPath id="95f36a15ab"><path d="M 298.429688 533.339844 L 348.273438 526.300781 L 355.3125 576.144531 L 305.464844 583.183594 Z M 298.429688 533.339844 " clip-rule="nonzero"/></clipPath><clipPath id="a2b8093b3a"><path d="M 323.351562 529.820312 C 309.585938 531.761719 300.003906 544.496094 301.949219 558.261719 C 303.890625 572.027344 316.625 581.609375 330.386719 579.664062 C 344.152344 577.722656 353.734375 564.988281 351.792969 551.222656 C 349.847656 537.460938 337.117188 527.875 323.351562 529.820312 Z M 323.351562 529.820312 " clip-rule="nonzero"/></clipPath></defs><g clip-path="url(#5f067e5f8a)"><g clip-path="url(#2d990993cb)"><path fill="#000000" d="M 99.046875 98.355469 L 668.953125 98.355469 L 668.953125 670.488281 L 99.046875 670.488281 Z M 99.046875 98.355469 " fill-opacity="1" fill-rule="nonzero"/></g></g><g clip-path="url(#22748948b8)"><g clip-path="url(#88dcfa86ac)"><g clip-path="url(#044f75ee4e)"><path fill="#ffffff" d="M 169.214844 340.316406 L 219.0625 333.277344 L 226.097656 383.121094 L 176.253906 390.160156 Z M 169.214844 340.316406 " fill-opacity="1" fill-rule="nonzero"/></g></g></g><g clip-path="url(#30cee1704d)"><g clip-path="url(#ad20314c8e)"><g clip-path="url(#6f318d8b07)"><path fill="#ffffff" d="M 157.105469 406.9375 L 206.949219 399.902344 L 213.988281 449.746094 L 164.140625 456.785156 Z M 157.105469 406.9375 " fill-opacity="1" fill-rule="nonzero"/></g></g></g><g clip-path="url(#89ed9bdd26)"><g clip-path="url(#223eeff736)"><g clip-path="url(#dee320564d)"><path fill="#ffffff" d="M 226.097656 404.800781 L 275.945312 397.765625 L 282.980469 447.609375 L 233.136719 454.648438 Z M 226.097656 404.800781 " fill-opacity="1" fill-rule="nonzero"/></g></g></g><g clip-path="url(#6f2d2d4401)"><g clip-path="url(#1ddd332d34)"><g clip-path="url(#dea54a4d5b)"><path fill="#ffffff" d="M 298.429688 412.40625 L 348.273438 405.367188 L 355.3125 455.210938 L 305.464844 462.25 Z M 298.429688 412.40625 " fill-opacity="1" fill-rule="nonzero"/></g></g></g><g clip-path="url(#ff9408bb59)"><g clip-path="url(#a116358b47)"><g clip-path="url(#ec0aac9b6a)"><path fill="#ffffff" d="M 185.546875 472.707031 L 235.390625 465.667969 L 242.429688 515.511719 L 192.582031 522.550781 Z M 185.546875 472.707031 " fill-opacity="1" fill-rule="nonzero"/></g></g></g><g clip-path="url(#a6d9ea18a0)"><g clip-path="url(#5435a1ee51)"><g clip-path="url(#249a05c969)"><path fill="#ffffff" d="M 262.914062 469.289062 L 312.761719 462.25 L 319.796875 512.09375 L 269.953125 519.132812 Z M 262.914062 469.289062 " fill-opacity="1" fill-rule="nonzero"/></g></g></g><g clip-path="url(#6e2839b7e0)"><g clip-path="url(#18bccd8dfc)"><g clip-path="url(#60df1cac4f)"><path fill="#ffffff" d="M 332.363281 472.707031 L 382.207031 465.667969 L 389.246094 515.511719 L 339.398438 522.550781 Z M 332.363281 472.707031 " fill-opacity="1" fill-rule="nonzero"/></g></g></g><g clip-path="url(#3966b4ccd1)"><g clip-path="url(#4d3da44177)"><g clip-path="url(#a563f71416)"><path fill="#ffffff" d="M 235.972656 529.550781 L 285.820312 522.511719 L 292.855469 572.359375 L 243.011719 579.394531 Z M 235.972656 529.550781 " fill-opacity="1" fill-rule="nonzero"/></g></g></g><g clip-path="url(#1b607c9dcb)"><g clip-path="url(#95f36a15ab)"><g clip-path="url(#a2b8093b3a)"><path fill="#ffffff" d="M 298.429688 533.339844 L 348.273438 526.300781 L 355.3125 576.144531 L 305.464844 583.183594 Z M 298.429688 533.339844 " fill-opacity="1" fill-rule="nonzero"/></g></g></g></svg>