<?xml version="1.0" encoding="UTF-8"?>
<svg id="Layer_1" xmlns="http://www.w3.org/2000/svg" xmlns:xlink="http://www.w3.org/1999/xlink" version="1.1" viewBox="0 0 390 390">
  <!-- Generator: Adobe Illustrator 30.1.0, SVG Export Plug-In . SVG Version: 2.1.1 Build 136)  -->
  <defs>
    <style>
      .st0 {
        fill: url(#linear-gradient);
      }
    </style>
    <linearGradient id="linear-gradient" x1="363.9" y1="99.48" x2="26.1" y2="294.52" gradientTransform="translate(0 392) scale(1 -1)" gradientUnits="userSpaceOnUse">
      <stop offset="0" stop-color="#fde608"/>
      <stop offset="1" stop-color="#fff5c2"/>
    </linearGradient>
  </defs>
  <path class="st0" d="M195,0C87.3,0,0,87.3,0,195s87.3,195,195,195,195-87.3,195-195S302.7,0,195,0ZM100.03,205.63c10.48,0,18.97,8.49,18.97,18.97s-8.49,18.97-18.97,18.97-18.97-8.49-18.97-18.97,8.49-18.97,18.97-18.97ZM59.2,159.47c10.48,0,18.97,8.49,18.97,18.97s-8.49,18.97-18.97,18.97-18.97-8.49-18.97-18.97,8.49-18.97,18.97-18.97ZM32.23,226.44c0-10.48,8.49-18.97,18.97-18.97s18.97,8.49,18.97,18.97-8.49,18.97-18.97,18.97-18.97-8.49-18.97-18.97ZM71.53,291.91c-10.48,0-18.97-8.49-18.97-18.97s8.49-18.97,18.97-18.97,18.97,8.49,18.97,18.97-8.49,18.97-18.97,18.97ZM107.23,332.41c-10.48,0-18.97-8.49-18.97-18.97s8.49-18.97,18.97-18.97,18.97,8.49,18.97,18.97-8.49,18.97-18.97,18.97ZM107.23,270.77c0-10.48,8.49-18.97,18.97-18.97s18.97,8.49,18.97,18.97-8.49,18.97-18.97,18.97-18.97-8.49-18.97-18.97h0ZM132.56,229.77c0-10.48,8.49-18.97,18.97-18.97s18.97,8.49,18.97,18.97-8.49,18.97-18.97,18.97-18.97-8.49-18.97-18.97ZM151.53,335.07c-10.48,0-18.97-8.49-18.97-18.97s8.49-18.97,18.97-18.97,18.97,8.49,18.97,18.97-8.49,18.97-18.97,18.97ZM176.03,291.91c-10.48,0-18.97-8.49-18.97-18.97s8.49-18.97,18.97-18.97,18.97,8.49,18.97,18.97-8.49,18.97-18.97,18.97ZM344.8,235.85c-.07.76-.47,4.01-3.25,6.42-2.94,2.55-6.4,2.31-7.33,2.25-.85-.05-3.56-.28-5.96-2.33-.65-.56-2.66-2.28-3-5.04-.08-.64-.05-1.19,0-1.58v-25c-2.63.45-6.35,1.05-10.83,1.67-10.17,1.41-16.62,2.3-24.83,2.5-10.9.26-19.29-.84-24.17-1.5-9.1-1.24-16-2.94-18.83-3.67-3.02-.78-10.44-2.8-19.67-6.5-3.3-1.32-9.94-4.11-18-8.5-4.98-2.71-11.9-6.8-19.67-12.5-4.33-3.18-11.1-8.19-18.83-16-6.91-6.98-11.32-12.89-15.5-18.5-3.02-4.05-7.09-9.53-11.67-17.33-1.82-3.1-8.31-14.15-11.33-23.67-.29-.91-1.54-4.94-3-9.83-.67-2.26-1.22-4.13-1.6-5.43-.02-.07-.04-.14-.06-.21l-.67.19-11.65,3.4-13.22,3.46c-.86.19-2.26.39-3.89.06-4.57-.91-6.71-5.03-7-5.61-.34-.68-1.31-2.67-1.11-5.33.26-3.47,2.43-7.12,5.67-8.28.56-.2,1.05-.29,1.39-.33l68.89-16.56c.66-.25,1.68-.53,2.94-.56,2.84-.07,4.89,1.21,5.5,1.61,2.74,1.77,5.51,5.62,4.72,10.06-.85,4.7-5.12,6.85-5.56,7.06-.83.4-1.58.61-2.11.72l-26.67,6.44c3.92,12.77,8.54,22.76,12.28,29.83,3.84,7.25,7.2,12.29,8.28,13.89,1.44,2.12,5.81,8.45,12.56,15.94,6.84,7.59,13.12,13.03,17.11,16.28,7.78,6.32,14.35,10.39,16.94,11.94,2.17,1.3,8.38,4.95,17,8.72,9.26,4.04,16.67,6.19,18.94,6.83,10.26,2.88,18.5,3.94,22.06,4.33,4.62.5,8.36.67,12.17.83,4.32.19,8.39.35,13.83.11,2.54-.12,5.28-.24,8.94-.71,4.21-.55,5.88-.99,10.08-1.52,3.28-.42,4.11-.52,7.42-1.28.96-.23,2.53-.37,2.94-.56v-28.5c.07-.64.2-1.47.5-2.39.14-.42.47-1.38,1.14-2.49.46-.76,1.37-2.23,3.12-3.46.72-.51,1.99-1.38,3.83-1.62,1.76-.24,3.13.23,4.12.58s4.28,1.52,5.92,4.71c.9,1.77,1.04,3.63,1.12,4.71.07.91.04,1.67,0,2.21v70.04h0Z"/>
</svg>